<?xml version="1.0" encoding="utf-8"?>
<!-- Svg Vector Icons : http://www.onlinewebfonts.com/icon -->
<!DOCTYPE svg PUBLIC "-//W3C//DTD SVG 1.1//EN" "http://www.w3.org/Graphics/SVG/1.1/DTD/svg11.dtd">
<svg version="1.1" xmlns="http://www.w3.org/2000/svg" xmlns:xlink="http://www.w3.org/1999/xlink" x="0px" y="0px" viewBox="0 0 1000 1000" enable-background="new 0 0 1000 1000" xml:space="preserve">
<metadata> Svg Vector Icons : http://www.onlinewebfonts.com/icon </metadata>
<g><path d="M143.6,500H10l178.2,178.2L366.4,500H232.7c0-147.4,119.8-267.3,267.3-267.3c45,0,87.8,11.1,124.7,31.2l65-65C635,164.1,569.9,143.6,500,143.6C303.1,143.6,143.6,303.1,143.6,500L143.6,500z M767.3,500c0,147.4-119.8,267.3-267.3,267.3c-45,0-87.8-11.1-124.7-31.2l-65,65c54.8,34.7,119.8,55.2,189.8,55.2c196.9,0,356.4-159.5,356.4-356.4H990L811.8,321.8L633.6,500H767.3L767.3,500z"/></g>
</svg>